<?xml version="1.0" encoding="UTF-8"?>
<svg xmlns="http://www.w3.org/2000/svg" viewBox="0 0 300 100" width="300" height="100">
  <!-- PLC Rack / Backplane -->
  <!-- Main chassis -->
  <rect x="5" y="10" width="290" height="80" fill="#2D3748" stroke="#4A5568" stroke-width="2" rx="3"/>
  <!-- Ventilation slots -->
  <g fill="#1A202C">
    <rect x="15" y="75" width="30" height="4"/>
    <rect x="55" y="75" width="30" height="4"/>
    <rect x="95" y="75" width="30" height="4"/>
    <rect x="135" y="75" width="30" height="4"/>
    <rect x="175" y="75" width="30" height="4"/>
    <rect x="215" y="75" width="30" height="4"/>
    <rect x="255" y="75" width="30" height="4"/>
  </g>
  <!-- Slot dividers -->
  <g stroke="#4A5568" stroke-width="1">
    <line x1="50" y1="15" x2="50" y2="85"/>
    <line x1="95" y1="15" x2="95" y2="85"/>
    <line x1="140" y1="15" x2="140" y2="85"/>
    <line x1="185" y1="15" x2="185" y2="85"/>
    <line x1="230" y1="15" x2="230" y2="85"/>
    <line x1="275" y1="15" x2="275" y2="85"/>
  </g>
  <!-- Mounting holes -->
  <g fill="#1A202C">
    <circle cx="12" cy="20" r="3"/>
    <circle cx="12" cy="80" r="3"/>
    <circle cx="288" cy="20" r="3"/>
    <circle cx="288" cy="80" r="3"/>
  </g>
</svg>
